<svg xmlns="http://www.w3.org/2000/svg" xmlns:xlink="http://www.w3.org/1999/xlink" version="1.1" x="0px" y="0px" viewBox="0 0 100 100" enable-background="new 0 0 100 100" xml:space="preserve">
	<path d="M79.929,11.933H61.112c-1.475-1.325-3.365-2.122-5.423-2.122H53.49c0.315-0.577,0.483-1.224,0.483-1.891  c0-2.191-1.782-3.974-3.974-3.974c-2.191,0-3.973,1.783-3.973,3.974c0,0.667,0.167,1.314,0.483,1.891h-2.198  c-2.058,0-3.949,0.797-5.424,2.122H20.072c-2.109,0-3.826,1.716-3.826,3.825v75.653c0,0.878,0.31,1.679,0.809,2.325  c0.02,0.038,0.04,0.077,0.071,0.11l0.126,0.134c0.001,0.001,0.002,0.001,0.002,0.002l0,0l0.02,0.021  c0.005,0.006,0.01,0.013,0.016,0.019c0,0,0,0,0.001,0.001c0.049,0.053,0.098,0.104,0.151,0.154c0.005,0.005,0.01,0.01,0.015,0.015  c0.005,0.004,0.01,0.005,0.015,0.009c0.684,0.638,1.594,1.036,2.601,1.036h59.857c2.109,0,3.825-1.716,3.825-3.825V15.758  C83.754,13.649,82.038,11.933,79.929,11.933z M47.489,10.812c0.2,0,0.381-0.119,0.459-0.303c0.079-0.184,0.041-0.396-0.097-0.542  c-0.532-0.559-0.825-1.285-0.825-2.046c0-1.64,1.334-2.974,2.973-2.974c1.64,0,2.974,1.334,2.974,2.974  c0,0.761-0.293,1.488-0.825,2.046c-0.138,0.145-0.176,0.358-0.098,0.542c0.079,0.184,0.26,0.303,0.46,0.303h3.178  c3.998,0,7.278,3.443,7.515,7.772H36.796c0.236-4.329,3.517-7.772,7.516-7.772H47.489z M36.283,19.583h27.434  c0.276,0,0.5-0.224,0.5-0.5c0-0.575-0.055-1.135-0.148-1.681h11.723v72.366H24.209V17.402H35.93  c-0.093,0.546-0.148,1.106-0.148,1.681C35.783,19.36,36.006,19.583,36.283,19.583z M82.754,91.411c0,1.558-1.268,2.825-2.825,2.825  H20.072c-0.746,0-1.42-0.296-1.926-0.77l-0.161-0.168l-0.095-0.116c-0.001-0.001-0.002-0.001-0.003-0.002  c-0.394-0.486-0.641-1.096-0.641-1.769V15.758c0-1.558,1.268-2.825,2.826-2.825h17.875c-0.812,0.992-1.435,2.168-1.797,3.469h-12.44  c-0.276,0-0.5,0.224-0.5,0.5v73.366c0,0.276,0.224,0.5,0.5,0.5h52.583c0.276,0,0.5-0.224,0.5-0.5V16.902c0-0.276-0.224-0.5-0.5-0.5  H63.85c-0.362-1.302-0.986-2.478-1.797-3.469h17.876c1.558,0,2.825,1.268,2.825,2.825V91.411z"></path>

	<path d="M29.686,23.816c0,0.276,0.224,0.5,0.5,0.5h39.627c0.276,0,0.5-0.224,0.5-0.5s-0.224-0.5-0.5-0.5H30.186  C29.909,23.316,29.686,23.54,29.686,23.816z"></path>

	<path d="M30.186,27.875h39.627c0.276,0,0.5-0.224,0.5-0.5s-0.224-0.5-0.5-0.5H30.186c-0.276,0-0.5,0.224-0.5,0.5  S29.909,27.875,30.186,27.875z"></path>

	<path d="M69.814,38.579H44.925c-0.276,0-0.5,0.224-0.5,0.5s0.224,0.5,0.5,0.5h24.889c0.276,0,0.5-0.224,0.5-0.5  S70.091,38.579,69.814,38.579z"></path>

	<path d="M69.814,35.394H44.925c-0.276,0-0.5,0.224-0.5,0.5s0.224,0.5,0.5,0.5h24.889c0.276,0,0.5-0.224,0.5-0.5  S70.091,35.394,69.814,35.394z"></path>

	<path d="M69.814,41.748H44.925c-0.276,0-0.5,0.224-0.5,0.5s0.224,0.5,0.5,0.5h24.889c0.276,0,0.5-0.224,0.5-0.5  S70.091,41.748,69.814,41.748z"></path>

	<path d="M44.925,45.893h20.54c0.276,0,0.5-0.224,0.5-0.5s-0.224-0.5-0.5-0.5h-20.54c-0.276,0-0.5,0.224-0.5,0.5  S44.649,45.893,44.925,45.893z"></path>

	<path d="M35.902,34.995c-3.427,0-6.214,2.788-6.214,6.214s2.788,6.215,6.214,6.215s6.215-2.788,6.215-6.215  S39.329,34.995,35.902,34.995z M35.902,46.424c-2.875,0-5.214-2.339-5.214-5.215c0-2.875,2.339-5.214,5.214-5.214  c2.875,0,5.215,2.339,5.215,5.214C41.117,44.084,38.777,46.424,35.902,46.424z"></path>

	<path d="M69.814,54.307H44.925c-0.276,0-0.5,0.224-0.5,0.5s0.224,0.5,0.5,0.5h24.889c0.276,0,0.5-0.224,0.5-0.5  S70.091,54.307,69.814,54.307z"></path>

	<path d="M69.814,57.527H44.925c-0.276,0-0.5,0.224-0.5,0.5s0.224,0.5,0.5,0.5h24.889c0.276,0,0.5-0.224,0.5-0.5  S70.091,57.527,69.814,57.527z"></path>

	<path d="M69.814,60.698H44.925c-0.276,0-0.5,0.224-0.5,0.5s0.224,0.5,0.5,0.5h24.889c0.276,0,0.5-0.224,0.5-0.5  S70.091,60.698,69.814,60.698z"></path>

	<path d="M44.925,64.841h20.54c0.276,0,0.5-0.224,0.5-0.5s-0.224-0.5-0.5-0.5h-20.54c-0.276,0-0.5,0.224-0.5,0.5  S44.649,64.841,44.925,64.841z"></path>

	<path d="M69.814,73.487H44.925c-0.276,0-0.5,0.224-0.5,0.5s0.224,0.5,0.5,0.5h24.889c0.276,0,0.5-0.224,0.5-0.5  S70.091,73.487,69.814,73.487z"></path>

	<path d="M69.814,76.708H44.925c-0.276,0-0.5,0.224-0.5,0.5s0.224,0.5,0.5,0.5h24.889c0.276,0,0.5-0.224,0.5-0.5  S70.091,76.708,69.814,76.708z"></path>

	<path d="M69.814,79.879H44.925c-0.276,0-0.5,0.224-0.5,0.5s0.224,0.5,0.5,0.5h24.889c0.276,0,0.5-0.224,0.5-0.5  S70.091,79.879,69.814,79.879z"></path>

	<path d="M65.465,83.021h-20.54c-0.276,0-0.5,0.224-0.5,0.5s0.224,0.5,0.5,0.5h20.54c0.276,0,0.5-0.224,0.5-0.5  S65.741,83.021,65.465,83.021z"></path>

	<path d="M50,9.791c1.03,0,1.868-0.838,1.868-1.869c0,0,0,0,0-0.001s0,0,0-0.001c0-1.03-0.838-1.869-1.868-1.869  S48.132,6.89,48.132,7.92c0,0,0,0,0,0.001s0,0,0,0.001C48.132,8.952,48.97,9.791,50,9.791z M50,7.054  c0.478,0,0.868,0.389,0.868,0.867c0,0.478-0.39,0.867-0.868,0.867s-0.868-0.389-0.868-0.867C49.132,7.443,49.522,7.054,50,7.054z"></path>

	<path class="checkmark" d="M38.581,38.986l-2.984,3.437l-2.46-1.88c-0.219-0.168-0.532-0.126-0.701,0.093  c-0.168,0.219-0.126,0.533,0.093,0.701l2.833,2.166c0.09,0.069,0.197,0.103,0.303,0.103c0.141,0,0.279-0.059,0.378-0.172  l3.292-3.792c0.181-0.208,0.159-0.524-0.05-0.705C39.079,38.754,38.762,38.777,38.581,38.986z"></path>

	<path d="M35.902,53.854c-3.427,0-6.214,2.788-6.214,6.215s2.788,6.215,6.214,6.215s6.215-2.788,6.215-6.215  S39.329,53.854,35.902,53.854z M35.902,65.283c-2.875,0-5.214-2.34-5.214-5.215s2.339-5.215,5.214-5.215  c2.875,0,5.215,2.34,5.215,5.215S38.777,65.283,35.902,65.283z"></path>

	<path class="checkmark" d="M38.581,57.845l-2.984,3.437l-2.46-1.881c-0.219-0.167-0.532-0.125-0.701,0.094  c-0.168,0.22-0.126,0.533,0.093,0.701l2.833,2.166c0.09,0.069,0.197,0.103,0.303,0.103c0.141,0,0.279-0.059,0.378-0.172l3.292-3.791  c0.181-0.209,0.159-0.524-0.05-0.706C39.079,57.614,38.762,57.638,38.581,57.845z"></path>

	<path d="M35.902,73.487c-3.427,0-6.214,2.788-6.214,6.215s2.788,6.215,6.214,6.215s6.215-2.788,6.215-6.215  S39.329,73.487,35.902,73.487z M35.902,84.917c-2.875,0-5.214-2.34-5.214-5.215s2.339-5.215,5.214-5.215  c2.875,0,5.215,2.34,5.215,5.215S38.777,84.917,35.902,84.917z"></path>

	<path class="checkmark" d="M38.581,77.479l-2.984,3.437l-2.46-1.881c-0.219-0.168-0.532-0.125-0.701,0.094  c-0.168,0.22-0.126,0.533,0.093,0.701l2.833,2.166c0.09,0.069,0.197,0.103,0.303,0.103c0.141,0,0.279-0.059,0.378-0.172l3.292-3.791  c0.181-0.209,0.159-0.524-0.05-0.706C39.079,77.248,38.762,77.271,38.581,77.479z"></path>
</svg>