<svg xmlns="http://www.w3.org/2000/svg" xmlns:xlink="http://www.w3.org/1999/xlink" version="1.1" x="0px" y="0px" viewBox="0 0 100 100" enable-background="new 0 0 100 100" xml:space="preserve"><g>
	<path fill="gold" d="M50,69.5c-0.4,0-0.7-0.1-1-0.4C43.4,64.2,36.5,58,36.5,50.9c0-6.2,3.8-8.4,7.4-8.4c2.5,0,4.8,1.9,6.1,3.3   c1.3-1.4,3.6-3.3,6.1-3.3c3.6,0,7.4,2.2,7.4,8.4c0,7.2-6.9,13.3-12.5,18.2C50.7,69.4,50.4,69.5,50,69.5z"></path>

<!-- For an outlined heart:	M43.9,45.5   c-2.8,0-4.4,1.9-4.4,5.4c0,5.4,5.6,10.7,10.5,15.1c4.9-4.4,10.5-9.7,10.5-15.1c0-4.7-2.8-5.4-4.4-5.4c-1.9,0-4.2,2.6-4.9,3.5   c-0.6,0.8-1.9,0.8-2.4,0C48.1,48.1,45.8,45.5,43.9,45.5z" -->

	<path d="M50.1,77c0-0.8,0.6-1.5,1.4-1.6l0,0c0.8-0.1,1.5,0.6,1.6,1.4l0,0c0.1,0.8-0.6,1.5-1.4,1.6l0,0c0,0-0.1,0-0.1,0l0,0   C50.8,78.4,50.1,77.8,50.1,77z M45.3,78c-0.8-0.2-1.3-1-1.2-1.8l0,0c0.2-0.8,1-1.3,1.8-1.2l0,0c0.8,0.2,1.3,1,1.2,1.8l0,0   c-0.1,0.7-0.8,1.2-1.5,1.2l0,0C45.5,78.1,45.4,78,45.3,78z M56,76.2c-0.3-0.8,0.1-1.6,0.9-1.9l0,0c0.8-0.3,1.6,0.1,1.9,0.9l0,0   c0.3,0.8-0.1,1.6-0.9,1.9l0,0c-0.2,0.1-0.3,0.1-0.5,0.1l0,0C56.8,77.2,56.2,76.8,56,76.2z M39.3,75.9c-0.7-0.4-1-1.3-0.6-2l0,0   c0.4-0.7,1.3-1,2-0.6l0,0c0.7,0.4,1,1.3,0.6,2l0,0c-0.3,0.5-0.8,0.8-1.3,0.8l0,0C39.7,76.1,39.5,76,39.3,75.9z M61.5,73.8   c-0.5-0.7-0.3-1.6,0.3-2.1l0,0c0.7-0.5,1.6-0.3,2.1,0.3l0,0c0.5,0.7,0.3,1.6-0.4,2.1l0,0l0,0l0,0c-0.3,0.2-0.6,0.3-0.9,0.3l0,0   C62.3,74.4,61.8,74.2,61.5,73.8z M34,72.2c-0.6-0.6-0.6-1.5-0.1-2.1l0,0c0.6-0.6,1.5-0.6,2.1-0.1l0,0c0.6,0.6,0.6,1.5,0.1,2.1l0,0   c-0.3,0.3-0.7,0.5-1.1,0.5l0,0C34.7,72.6,34.3,72.5,34,72.2z M66.2,70c-0.7-0.5-0.8-1.5-0.2-2.1h0c0.5-0.6,1.5-0.8,2.1-0.2l0,0   c0.6,0.5,0.7,1.5,0.2,2.1l0,0l0,0l0,0c-0.3,0.4-0.7,0.5-1.2,0.5l0,0C66.8,70.3,66.4,70.2,66.2,70z M30,67.3   c-0.4-0.7-0.2-1.6,0.5-2.1l0,0c0.7-0.4,1.6-0.2,2.1,0.5l0,0c0.4,0.7,0.2,1.6-0.5,2.1l0,0c-0.2,0.1-0.5,0.2-0.8,0.2l0,0   C30.7,68,30.2,67.8,30,67.3z M69.6,65.1c-0.8-0.3-1.1-1.2-0.8-2l0,0c0.3-0.8,1.2-1.1,2-0.8l0,0c0.8,0.3,1.1,1.2,0.8,2l0,0l0,0l0,0   c-0.2,0.6-0.8,0.9-1.4,0.9l0,0C70,65.2,69.8,65.2,69.6,65.1z M27.4,61.4c-0.2-0.8,0.2-1.6,1-1.8l0,0c0.8-0.2,1.6,0.2,1.9,1l0,0   c0.2,0.8-0.2,1.6-1,1.9l0,0c-0.1,0-0.3,0.1-0.4,0.1l0,0C28.2,62.5,27.6,62.1,27.4,61.4z M71.6,59.4c-0.8-0.1-1.4-0.9-1.3-1.7l0,0   c0.1-0.8,0.9-1.4,1.7-1.3l0,0c0.8,0.1,1.4,0.9,1.3,1.7l0,0c-0.1,0.8-0.8,1.3-1.5,1.3l0,0C71.7,59.5,71.7,59.4,71.6,59.4z    M26.5,55.1C26.5,55.1,26.5,55.1,26.5,55.1L26.5,55.1C26.5,55,26.5,55,26.5,55.1L26.5,55.1L26.5,55.1L26.5,55.1   c0-0.9,0.7-1.6,1.5-1.6l0,0c0.8,0,1.5,0.7,1.5,1.5l0,0c0,0,0,0,0,0l0,0c0,0,0,0,0,0v0c0,0.8-0.7,1.5-1.5,1.5l0,0   C27.2,56.6,26.5,55.9,26.5,55.1z M26.5,55.1L26.5,55.1L26.5,55.1L26.5,55.1L26.5,55.1L26.5,55.1z M70.3,52.2   c-0.1-0.8,0.5-1.6,1.3-1.7l0,0c0.8-0.1,1.6,0.5,1.7,1.3l0,0l0,0l0,0c0.1,0.8-0.5,1.6-1.3,1.7l0,0c-0.1,0-0.1,0-0.2,0l0,0   C71,53.5,70.4,52.9,70.3,52.2z M28.4,50.5c-0.8-0.2-1.3-1-1-1.9l0,0c0,0,0,0,0,0l0,0c0.2-0.8,1-1.3,1.8-1l0,0   c0.8,0.2,1.3,1.1,1,1.9l0,0c-0.2,0.7-0.8,1.1-1.4,1.1l0,0C28.7,50.6,28.5,50.5,28.4,50.5z M68.8,46.8L68.8,46.8   c-0.3-0.8,0-1.6,0.8-2l0,0c0.8-0.3,1.7,0,2,0.8l0,0c0.3,0.8,0,1.6-0.8,2l0,0c-0.2,0.1-0.4,0.1-0.6,0.1l0,0   C69.6,47.7,69,47.4,68.8,46.8z M30.4,44.8c-0.7-0.4-0.9-1.3-0.5-2.1l0,0c0,0,0,0,0,0l0,0c0.4-0.7,1.4-0.9,2.1-0.5l0,0   c0.7,0.4,0.9,1.4,0.5,2.1l0,0c-0.3,0.5-0.8,0.7-1.3,0.7l0,0C30.9,45.1,30.7,45,30.4,44.8z M65.9,42c-0.5-0.6-0.4-1.6,0.2-2.1l0,0   c0.6-0.5,1.6-0.4,2.1,0.2l0,0c0.5,0.6,0.4,1.6-0.2,2.1l0,0c-0.3,0.2-0.6,0.3-1,0.3l0,0C66.6,42.6,66.2,42.4,65.9,42z M33.9,39.9   c-0.6-0.6-0.5-1.5,0.1-2.1l0,0c0.6-0.6,1.6-0.5,2.1,0.1l0,0c0.6,0.6,0.5,1.6-0.1,2.1l0,0c-0.3,0.3-0.7,0.4-1,0.4l0,0   C34.6,40.4,34.2,40.3,33.9,39.9z M61.8,38.2c-0.7-0.5-0.8-1.4-0.4-2.1l0,0c0.5-0.7,1.4-0.8,2.1-0.4l0,0c0.7,0.5,0.8,1.4,0.4,2.1   l0,0c-0.3,0.4-0.8,0.6-1.2,0.6l0,0C62.4,38.5,62.1,38.4,61.8,38.2z M38.5,36.2c-0.4-0.7-0.1-1.6,0.6-2l0,0c0.7-0.4,1.6-0.1,2,0.6   l0,0c0.4,0.7,0.1,1.6-0.6,2l0,0c-0.2,0.1-0.5,0.2-0.7,0.2l0,0C39.3,37,38.8,36.7,38.5,36.2z M56.8,35.7c-0.8-0.3-1.2-1.1-0.9-1.9   l0,0c0.3-0.8,1.1-1.2,1.9-0.9l0,0c0.8,0.3,1.2,1.1,0.9,1.9l0,0c-0.2,0.6-0.8,1-1.4,1l0,0C57.2,35.8,57,35.7,56.8,35.7z M44,33.8   c-0.2-0.8,0.3-1.6,1.2-1.8l0,0c0.8-0.2,1.6,0.4,1.8,1.2l0,0c0.2,0.8-0.4,1.6-1.2,1.8l0,0c-0.1,0-0.2,0-0.3,0l0,0   C44.8,35,44.2,34.5,44,33.8z M51.4,34.5L51.4,34.5c-0.8-0.1-1.5-0.8-1.4-1.6l0,0c0-0.8,0.8-1.4,1.6-1.4l0,0c0,0,0,0,0,0l0,0   c0.8,0,1.5,0.8,1.4,1.6l0,0C52.9,33.9,52.3,34.5,51.4,34.5L51.4,34.5C51.4,34.5,51.4,34.5,51.4,34.5z"></path>

	<path d="M50,83.5c-15.7,0-28.5-12.8-28.5-28.5S34.3,26.5,50,26.5S78.5,39.3,78.5,55S65.7,83.5,50,83.5z M50,29.5   c-14.1,0-25.5,11.4-25.5,25.5 S35.9,80.5,50,80.5 S75.5,69.1,75.5,55 S64.1,29.5,50,29.5z"></path>
</g>
</svg>