<svg xmlns="http://www.w3.org/2000/svg" xmlns:xlink="http://www.w3.org/1999/xlink" version="1.1" x="0px" y="0px" viewBox="0 0 48 48" enable-background="new 0 0 48 48" xml:space="preserve">
	<g>
		<rect x="22.5" y="1.4" width="2" height="44.2"></rect>
		<!-- <rect x="14.5" y="44.6" fill="#000000" width="16" height="1.5"></rect> -->
		<g>
			<path fill="gold" d="M42.6,16 H24.5 V6.3 h18.1 l4.9,4.9 L42.6,16 z 
				M24.5,15.25 h17.8 l4.1-4.1 l-4.1-4.1 H24.5 V15.25 z"></path>

			<path d="M37.7,35.8 H22.5 V26 h15.1 l4.9,4.9 L37.7,35.8 z 
				M25.5,35.0 h11.9 l4.1-4.1 l-4.1-4.1 H22.5 V35.0 z"></path>

			<path d="M22.5,24 H5.4 l-4.9-4.9 l4.9-4.9 h17.1 V24 z 
				M5.8,23.2 h16.8 v-8.2 H5.8 l-4.1,4.1 L5.8,23.2 z"></path>
		</g>
	</g>
</svg>